# xmcd CD database file
#
# Track frame offsets:
#	150
#	15879
#	30070
#	43270
#	58370
#	72228
#	88506
#	106490
#	122150
#	137368
#	152635
#	165985
#
# Disc length: 2376 seconds
#
# Revision: 1
# Processed by: cddbd v1.5.2PL0 Copyright (c) Steve Scherf et al.
# Submitted via: CDex 1.51
#
DISCID=8d09460c
DTITLE=MILIONÁRIO E JOSÉ RICO - 1991-VONTADE DIVIDIDA - VOL. 20
DYEAR=1991
DGENRE=Sertanejo
TTITLE0=SENTADO À BEIRA DO MAR
TTITLE1=PORTO DA SAUDADE
TTITLE2=LEMBRANÇA DE UM BOIADEIRO
TTITLE3=MENTIRA TAMBÉM É VERDADE
TTITLE4=AMANTE DA ESTRADA
TTITLE5=MEU CASTIGO
TTITLE6=VONTADE DIVIDIDA
TTITLE7=999
TTITLE8=CONVITE
TTITLE9=ÚLTIMA CHANCE
TTITLE10=VERGONHA NA CARA
TTITLE11=NÃO ME PROCURES MAIS
EXTD=Rítimos:\n1 - Balanço\n2 - Rancheira\n3 - Toada\n4 - Balanço\n5 - Polca Paraguaia\n6 - Huapango\n7 - Balanço\n8 - Toada\n9 - Valsa Rancheira\n10 - Balanço\n11 - Batidão\n12 - Guarania YEAR: 1991
EXTT0=
EXTT1=
EXTT2=
EXTT3=
EXTT4=
EXTT5=
EXTT6=
EXTT7=
EXTT8=
EXTT9=
EXTT10=
EXTT11=
PLAYORDER=
